<svg width="102" height="102" viewBox="0 0 102 102" fill="none" xmlns="http://www.w3.org/2000/svg">
<g clip-path="url(#clip0)">
<path d="M20.717 86.0643V87.658C9.09711 78.9244 1.59229 65.0431 1.59229 49.4086C1.59229 23.0008 22.9963 1.59683 49.404 1.59683C75.8087 1.59683 97.2158 23.0008 97.2158 49.4086C97.2158 56.2597 95.7816 62.7786 93.1661 68.6749C86.315 63.6867 76.6569 64.2922 70.4874 70.4764C69.149 71.8149 68.0805 73.3129 67.2681 74.9066H58.9664V67.9738C66.5031 64.3879 71.7162 56.7064 71.7162 47.8133V30.2823C71.7162 24.9914 67.4416 20.72 62.1538 20.72V12.7514H46.2166C35.6488 12.7514 27.0919 21.2935 27.0919 31.8761V47.8117C27.0919 56.7049 32.3034 64.3863 39.8417 67.9722V74.9051H31.8731C25.7036 74.9082 20.717 79.8964 20.717 86.0643Z" fill="#AC92EC"/>
<path d="M49.4038 1.59686C48.3299 1.59686 47.2715 1.64511 46.2163 1.71359C71.1338 3.35479 90.8406 24.0748 90.8406 49.4086C90.8406 74.7409 71.1338 95.4593 46.2163 97.1005C47.2715 97.1713 48.3299 97.2188 49.4038 97.2188C75.8084 97.2188 97.2155 75.8117 97.2155 49.4071C97.2155 23.004 75.8084 1.59686 49.4038 1.59686Z" fill="#967ADC"/>
<path d="M93.166 68.6765C93.9006 69.2189 94.6002 69.808 95.2695 70.478C102.125 77.3151 102.125 88.4245 95.2695 95.2601C88.4308 102.115 77.3245 102.115 70.4858 95.2601C69.8321 94.608 69.2282 93.9053 68.6866 93.1722C64.7801 87.8012 64.3039 80.7096 67.2664 74.9082C68.0789 73.3145 69.1473 71.8165 70.4858 70.478C76.6568 64.2937 86.3149 63.6883 93.166 68.6765Z" fill="#A0D468"/>
<path d="M67.2515 74.9082H67.2679C64.3053 80.7096 64.78 87.8012 68.6881 93.1722C62.7894 95.7698 56.2713 97.2203 49.4038 97.2203C38.6267 97.2203 28.701 93.6664 20.7168 87.658V86.0643C20.7168 79.8964 25.7034 74.9082 31.8729 74.9082H39.8415L44.6227 78.0956L49.4038 76.5019L54.185 78.0956L58.9662 74.9082H67.2515Z" fill="#E6E9ED"/>
<path d="M58.9665 67.9753V74.9082L54.1853 78.0956L49.4041 76.5019L44.623 78.0956L39.8418 74.9082V67.9753C42.739 69.3605 45.9778 70.127 49.4041 70.127C52.8274 70.127 56.0662 69.3605 58.9665 67.9753Z" fill="#F5F7FA"/>
<path d="M71.7161 39.8462V47.8149C71.7161 56.708 66.503 64.3895 58.9663 67.9753C56.066 69.3605 52.8272 70.127 49.4039 70.127C45.9776 70.127 42.7388 69.3621 39.8416 67.9753C32.3033 64.3895 27.0918 56.708 27.0918 47.8149V39.8159L33.4667 33.4729C33.4667 33.4729 40.7466 36.6604 49.4039 36.6604C58.0582 36.6604 65.3412 33.4729 65.3412 33.4729L71.7161 39.8462Z" fill="#EAC6BB"/>
<path d="M65.341 33.4713V47.8149C65.341 56.708 60.1279 64.3895 52.5912 67.9753C50.6084 68.9224 48.4637 69.5519 46.2163 69.8733C47.2583 70.022 48.3166 70.1255 49.4038 70.1255C52.827 70.1255 56.0658 69.3605 58.9661 67.9738C66.5028 64.3879 71.7159 56.7064 71.7159 47.8133V39.8447L65.341 33.4713Z" fill="#D3B1A9"/>
<path d="M71.7161 30.2839V39.8462L65.3412 33.4713C65.3412 33.4713 58.0582 36.6588 49.4039 36.6588C40.7466 36.6588 33.4667 33.4713 33.4667 33.4713L27.0918 39.8143V31.8776C27.0918 21.2951 35.6487 12.7529 46.2165 12.7529H62.1537V20.7215C67.4415 20.7215 71.7161 24.993 71.7161 30.2839Z" fill="#965353"/>
<path d="M62.1537 20.7215V12.7529H55.7788V23.909C61.0666 23.909 65.3412 26.5867 65.3412 31.8776V33.4713L71.7161 39.8462V30.2839C71.7161 24.993 67.4415 20.7215 62.1537 20.7215Z" fill="#844646"/>
<path d="M67.2555 76.4989H58.9692C58.0875 76.4989 57.3755 75.7868 57.3755 74.9051C57.3755 74.0234 58.0875 73.3114 58.9692 73.3114H67.2555C68.1364 73.3114 68.8492 74.0234 68.8492 74.9051C68.8492 75.7868 68.1364 76.4989 67.2555 76.4989Z" fill="black"/>
<path d="M20.7202 87.6549C19.8385 87.6549 19.1265 86.9428 19.1265 86.0612C19.1265 79.031 24.8461 73.3114 31.8763 73.3114C32.758 73.3114 33.47 74.0234 33.47 74.9051C33.47 75.7868 32.758 76.4988 31.8763 76.4988C26.6025 76.4988 22.3139 80.7874 22.3139 86.0612C22.3139 86.9428 21.6019 87.6549 20.7202 87.6549Z" fill="black"/>
<path d="M39.8447 76.4989H31.876C30.9943 76.4989 30.2822 75.7868 30.2822 74.9051C30.2822 74.0234 30.9943 73.3114 31.876 73.3114H39.8447C40.7264 73.3114 41.4385 74.0234 41.4385 74.9051C41.4385 75.7868 40.7264 76.4989 39.8447 76.4989Z" fill="black"/>
<path d="M20.7202 89.2533C19.8385 89.2533 19.1265 88.5413 19.1265 87.6596V86.2923C19.1265 85.4106 19.8385 84.6985 20.7202 84.6985C21.6019 84.6985 22.314 85.4106 22.314 86.2923V87.6596C22.314 88.5413 21.6019 89.2533 20.7202 89.2533Z" fill="black"/>
<path d="M39.8447 76.499C38.963 76.499 38.251 75.7869 38.251 74.9052V67.9754C38.251 67.0944 38.963 66.3816 39.8447 66.3816C40.7264 66.3816 41.4385 67.0944 41.4385 67.9754V74.9052C41.4385 75.7869 40.7264 76.499 39.8447 76.499Z" fill="black"/>
<path d="M58.9692 76.499C58.0875 76.499 57.3755 75.7869 57.3755 74.9052V67.9754C57.3755 67.0944 58.0875 66.3816 58.9692 66.3816C59.8509 66.3816 60.563 67.0944 60.563 67.9754V74.9052C60.563 75.7869 59.8509 76.499 58.9692 76.499Z" fill="black"/>
<path d="M49.4069 71.7176C36.2252 71.7176 25.501 60.9934 25.501 47.8118C25.501 46.9324 26.213 46.218 27.0947 46.218C27.9764 46.218 28.6884 46.9324 28.6884 47.8118C28.6884 59.2355 37.9831 68.5302 49.4069 68.5302C60.8306 68.5302 70.1253 59.2355 70.1253 47.8118C70.1253 46.9324 70.8373 46.218 71.719 46.218C72.6007 46.218 73.3127 46.9324 73.3127 47.8118C73.3127 60.9934 62.5886 71.7176 49.4069 71.7176Z" fill="black"/>
<path d="M27.0947 49.3689C26.213 49.3689 25.501 48.6545 25.501 47.7752V31.8745C25.501 30.9952 26.213 30.2808 27.0947 30.2808C27.9764 30.2808 28.6884 30.9952 28.6884 31.8745V47.7752C28.6884 48.6545 27.9764 49.3689 27.0947 49.3689Z" fill="black"/>
<path d="M71.7192 49.407C70.8375 49.407 70.1255 48.6934 70.1255 47.8133V30.2823C70.1255 29.403 70.8375 28.6886 71.7192 28.6886C72.6009 28.6886 73.3129 29.403 73.3129 30.2823V47.8133C73.3129 48.6934 72.6009 49.407 71.7192 49.407Z" fill="black"/>
<path d="M71.7192 31.8747C70.8375 31.8747 70.1255 31.1603 70.1255 30.2809C70.1255 25.8872 66.5504 22.3122 62.1567 22.3122C61.275 22.3122 60.563 21.5978 60.563 20.7184C60.563 19.8391 61.275 19.1247 62.1567 19.1247C68.3068 19.1247 73.313 24.1293 73.313 30.2809C73.313 31.1603 72.6009 31.8747 71.7192 31.8747Z" fill="black"/>
<path d="M62.1572 22.3125C61.2755 22.3125 60.5635 21.5981 60.5635 20.7188V12.75C60.5635 11.8706 61.2755 11.1562 62.1572 11.1562C63.0389 11.1562 63.751 11.8706 63.751 12.75V20.7188C63.751 21.5981 63.0389 22.3125 62.1572 22.3125Z" fill="black"/>
<path d="M27.0947 33.4682C26.213 33.4682 25.501 32.7539 25.501 31.8745C25.501 20.4507 34.7956 11.1561 46.2194 11.1561C47.1011 11.1561 47.8131 11.8705 47.8131 12.7498C47.8131 13.6292 47.1011 14.3435 46.2194 14.3435C36.5535 14.3435 28.6884 22.2087 28.6884 31.8745C28.6884 32.7539 27.9764 33.4682 27.0947 33.4682Z" fill="black"/>
<path d="M71.7193 41.437C71.3116 41.437 70.903 41.2806 70.5925 40.9701L64.2175 34.5951C63.5942 33.9717 63.5942 32.9648 64.2175 32.3414C64.8408 31.7181 65.8478 31.7181 66.4712 32.3414L72.8462 38.7164C73.4695 39.3398 73.4695 40.3467 72.8462 40.9701C72.5357 41.2806 72.1271 41.437 71.7193 41.437Z" fill="black"/>
<path d="M49.4071 38.2494C40.5218 38.2494 33.1415 35.0635 32.831 34.9281C32.0263 34.5756 31.659 33.6371 32.01 32.8309C32.3625 32.0224 33.3041 31.6558 34.1072 32.0068C34.1772 32.0387 41.212 35.062 49.4071 35.062C57.6294 35.062 64.637 32.0387 64.707 32.0084C65.5132 31.6558 66.4533 32.0247 66.8043 32.8293C67.1583 33.6355 66.7902 34.5756 65.9817 34.9281C65.6728 35.0635 58.2893 38.2494 49.4071 38.2494Z" fill="black"/>
<path d="M27.0948 41.4175C26.6855 41.4175 26.2769 41.2619 25.9664 40.9491C25.3447 40.3265 25.3447 39.3172 25.9695 38.6954L32.3446 32.3399C32.9694 31.7181 33.9764 31.7196 34.5982 32.343C35.22 32.9663 35.22 33.9749 34.5951 34.5966L28.2201 40.9522C27.9096 41.2635 27.5026 41.4175 27.0948 41.4175Z" fill="black"/>
<path d="M44.6246 79.6864C44.3218 79.6864 44.0144 79.5984 43.7413 79.4187L38.96 76.2312C38.227 75.7417 38.0293 74.7534 38.5188 74.0203C39.0067 73.2888 39.9927 73.0911 40.7297 73.5791L45.5109 76.7666C46.244 77.256 46.4416 78.2444 45.9522 78.9774C45.6463 79.4381 45.1389 79.6864 44.6246 79.6864Z" fill="black"/>
<path d="M44.6259 79.6863C43.9582 79.6863 43.3364 79.2638 43.1154 78.5961C42.8361 77.7611 43.2874 76.8576 44.1224 76.5798L48.9037 74.986C49.7433 74.7059 50.6422 75.1588 50.92 75.9938C51.1986 76.8288 50.7472 77.7323 49.9122 78.0101L45.131 79.6038C44.9621 79.6591 44.7917 79.6863 44.6259 79.6863Z" fill="black"/>
<path d="M54.1902 79.6864C53.6758 79.6864 53.1684 79.4381 52.8626 78.9774C52.3731 78.2444 52.5707 77.256 53.3038 76.7666L58.085 73.5791C58.8181 73.0911 59.808 73.2888 60.2959 74.0203C60.7854 74.7534 60.5877 75.7417 59.8547 76.2312L55.0734 79.4187C54.8003 79.5984 54.4929 79.6864 54.1902 79.6864Z" fill="black"/>
<path d="M54.1883 79.6863C54.0225 79.6863 53.8521 79.6591 53.6848 79.6039L48.9035 78.0101C48.0701 77.7323 47.6172 76.8303 47.8965 75.9938C48.1751 75.1603 49.0693 74.7059 49.9121 74.986L54.6933 76.5798C55.5268 76.8576 55.9797 77.7595 55.7011 78.5961C55.4777 79.2638 54.856 79.6863 54.1883 79.6863Z" fill="black"/>
<path d="M49.4546 86.0612C48.5736 86.0612 47.853 85.3492 47.853 84.4675C47.853 83.5858 48.5573 82.8737 49.4374 82.8737H49.4546C50.3347 82.8737 51.0483 83.5858 51.0483 84.4675C51.0483 85.3492 50.3347 86.0612 49.4546 86.0612Z" fill="black"/>
<path d="M49.4546 92.4361C48.5736 92.4361 47.853 91.7241 47.853 90.8424C47.853 89.9607 48.5573 89.2486 49.4374 89.2486H49.4546C50.3347 89.2486 51.0483 89.9607 51.0483 90.8424C51.0483 91.7241 50.3347 92.4361 49.4546 92.4361Z" fill="black"/>
<path d="M62.157 14.3437H46.2197C45.338 14.3437 44.626 13.6293 44.626 12.75C44.626 11.8706 45.338 11.1562 46.2197 11.1562H62.157C63.0386 11.1562 63.7507 11.8706 63.7507 12.75C63.7507 13.6293 63.0386 14.3437 62.157 14.3437Z" fill="black"/>
<path d="M49.4079 98.811C22.1652 98.811 0.00244141 76.649 0.00244141 49.4055C0.00244141 22.1643 22.1652 0 49.4079 0C76.6475 0 98.8103 22.162 98.8134 49.4055C98.8134 56.3352 97.4049 63.0416 94.6283 69.3348C94.2727 70.1418 93.3326 70.5068 92.528 70.1511C91.721 69.7955 91.3576 68.8555 91.7117 68.0508C94.3092 62.1615 95.6259 55.8885 95.6259 49.4055C95.6228 23.9199 74.8896 3.18745 49.4079 3.18745C23.9247 3.18745 3.18989 23.9199 3.18989 49.4055C3.18989 74.8895 23.9247 95.6235 49.4079 95.6235C55.891 95.6235 62.1624 94.3084 68.0447 91.7123C68.8517 91.3606 69.7917 91.724 70.1458 92.5286C70.4991 93.3333 70.1357 94.2749 69.3295 94.629C63.0425 97.404 56.3392 98.811 49.4079 98.811Z" fill="black"/>
<path d="M82.8752 102C77.7672 102 72.9642 100.011 69.3542 96.3978C65.7395 92.787 63.7505 87.9833 63.7505 82.8737C63.7505 77.7657 65.7411 72.9619 69.3542 69.3527C72.9642 65.7396 77.7672 63.749 82.8752 63.749C87.9832 63.749 92.7869 65.7396 96.3962 69.3527C100.009 72.9619 102 77.7657 102 82.8737C102 87.9833 100.011 92.787 96.3962 96.3978C92.7869 100.011 87.9832 102 82.8752 102ZM82.8752 66.9364C78.6185 66.9364 74.6163 68.594 71.6078 71.6063C68.5955 74.6148 66.9379 78.617 66.9379 82.8737C66.9379 87.1304 68.5955 91.1341 71.6078 94.1442C74.6179 97.155 78.6185 98.8125 82.8752 98.8125C87.1319 98.8125 91.1341 97.155 94.1425 94.1442C97.1549 91.1341 98.8124 87.1304 98.8124 82.8737C98.8124 78.617 97.1549 74.6148 94.1425 71.6063C91.1341 68.594 87.1319 66.9364 82.8752 66.9364Z" fill="black"/>
<path d="M90.844 84.4674H74.9067C74.025 84.4674 73.313 83.7554 73.313 82.8737C73.313 81.992 74.025 81.28 74.9067 81.28H90.844C91.7257 81.28 92.4377 81.992 92.4377 82.8737C92.4377 83.7554 91.7257 84.4674 90.844 84.4674Z" fill="black"/>
<path d="M82.8755 92.4361C81.9938 92.4361 81.2817 91.724 81.2817 90.8423V74.9051C81.2817 74.0234 81.9938 73.3114 82.8755 73.3114C83.7571 73.3114 84.4692 74.0234 84.4692 74.9051V90.8423C84.4692 91.724 83.7571 92.4361 82.8755 92.4361Z" fill="black"/>
</g>
<defs>
<clipPath id="clip0">
<rect width="102" height="102" fill="white"/>
</clipPath>
</defs>
</svg>
